<svg xmlns="http://www.w3.org/2000/svg" viewBox="0 0 145.8 145.8"><defs><style>.cls-1{fill:#182866;}.cls-2{fill:#fff;}.cls-3{fill:#db052c;}</style></defs><g id="Livello_2" data-name="Livello 2"><g id="Livello_1-2" data-name="Livello 1"><path class="cls-1" d="M97.05,4.11a73,73,0,0,0-48.58.1l0,0a72.91,72.91,0,0,0,0,137.35h0A72.91,72.91,0,1,0,97.05,4.11Z"/><path class="cls-2" d="M141.69,48.75a72.94,72.94,0,0,0-11.47-20.88L72.9,59.31,15.59,27.87A72.73,72.73,0,0,0,4.11,48.75l44,24.15-44,24.15a72.91,72.91,0,0,0,11.48,20.89L72.9,86.49l57.32,31.45a72.89,72.89,0,0,0,11.47-20.89l-44-24.15Z"/><path class="cls-3" d="M138.66,41.43a72.56,72.56,0,0,0-4-7.19l-61.8,34-61.8-34a72.56,72.56,0,0,0-4,7.19L64.38,72.9,7.14,104.38a73.55,73.55,0,0,0,4,7.18l61.8-34,61.8,34a73.55,73.55,0,0,0,4-7.18L81.42,72.9Z"/><path class="cls-2" d="M145.8,72.9a72.92,72.92,0,0,0-2.21-17.85H90.77V2.21A73.19,73.19,0,0,0,55,2.22V55.05H2.21a73.19,73.19,0,0,0,0,35.74H55v52.79a73.19,73.19,0,0,0,35.74,0V90.79h52.81A72.7,72.7,0,0,0,145.8,72.9Z"/><path class="cls-3" d="M145.8,72a73.37,73.37,0,0,0-.69-10H83.79V.7A72.71,72.71,0,0,0,62,1V62H.7A72.71,72.71,0,0,0,1,83.79H62v61.06a72.46,72.46,0,0,0,11.77,1,73.37,73.37,0,0,0,10-.69V83.79h61.06A72.46,72.46,0,0,0,145.8,72Z"/></g></g></svg>