<svg xmlns="http://www.w3.org/2000/svg" viewBox="0 0 364.73 163.39"><defs><style>.cls-1{fill:#167f09;}</style></defs><g id="Livello_2" data-name="Livello 2"><g id="Livello_1-2" data-name="Livello 1"><path class="cls-1" d="M187.8,163.39h-4.86a53.16,53.16,0,0,1-6.48-1.47c-1.77-.39-3-.7-4.05-2-.7-.85-1.4-1.71-2.09-2.58a8.68,8.68,0,0,1-2.19-5.43c0-2.71.37-5.41.45-8.12.14-4.93.18-9.87-1.51-14.62-.1-.26-.29-.7-.43-.69a1.32,1.32,0,0,0-.91.4c-.68.87-16.4,19.58-17,20.5a7.67,7.67,0,0,0-1.79,4.86,1.39,1.39,0,0,0,1,1.49,8.65,8.65,0,0,1,2.61,1.31,3.9,3.9,0,0,1,1.3,2.29c.06.59-.62,1.43-1.19,1.84a4.15,4.15,0,0,1-2.14.57,40,40,0,0,1-9-.86,7.43,7.43,0,0,1-4.57-2.71c-1.68-2.07-3-4.43-2.38-7.58a22.46,22.46,0,0,1,2-6.1,71.88,71.88,0,0,1,5.44-8.93,28.5,28.5,0,0,0,4.2-9.28c.45-1.64,3-10.84,3.41-12.49-.07-2.7-.64-2.13-7.63-7.56-4.34-3.06-2.39-1.77-8.52-5.62a21.32,21.32,0,0,0-7-2.68,34.06,34.06,0,0,0-6-.93c-3.92-.14-7.84,0-11.75,0-.41,0-10.74,1.33-12.5,1.54-1.13.14-2.26.39-3.38.59-1.56.28-3.11.61-4.68.85s-2.93.55-4.47.76c-1.05.14-2.06.31-3.1.51-1.51.29-3.16.52-4.68.74-1.74.26-3.51.37-5.27.57-2.73.3-5.45.62-8.17.93-.27,0-.54,0-.81,0a165.62,165.62,0,0,1-19.39.83,88.79,88.79,0,0,1-11.4-1.59c-2.36-.53-7.32-1.7-9.62-2.43a59.66,59.66,0,0,1-7.07-2.79c-3.54-1.64-7-3.38-10.48-5.23-.78-.41-2.23-1-1.36-2.41,2.43.41,3.24,1,7.3,1.24,6.29.84,19.9,1.47,29.32-.41,4.29-.85,15.08-4.06,15.93-4.28,1.44-.39,2.88-.82,4.34-1.13,1.11-.22,1.45-.84.74-1.73a7.2,7.2,0,0,1-1.63-5.06,23.54,23.54,0,0,1,.48-2.45,25.11,25.11,0,0,1,3-8.79,2.05,2.05,0,0,1,1.57-.84,10.75,10.75,0,0,1,2.79.73c2,.71,4.09,1.37,6,2.26,1.58.72,3.21,1.5,3.85,3.4C74.41,74,75,75,75.42,76.1c.29.79.65.8,1.31.4,1.11-.69,2.28-1.29,3.43-1.93-.12-.24-.14-.39-.24-.46a12.08,12.08,0,0,1-5.11-8.85A49.15,49.15,0,0,1,75,56.35a32.94,32.94,0,0,1,1.49-5.19c1,.1,1.63.17,2.29.22A68.68,68.68,0,0,1,86,52c2.43.73,5,1.25,7.14,3a21.69,21.69,0,0,1,4.55,5.28A10.83,10.83,0,0,1,98.81,63c.24.78.76,1.13,1.4.79a16.41,16.41,0,0,0,2.79-2c.17-.14.06-.83-.13-1.15a25.13,25.13,0,0,0-2-3,14.65,14.65,0,0,1-3.13-8.42,51.91,51.91,0,0,1,.16-8.72,59.23,59.23,0,0,1,1.59-8c.53-2,2.51-7.47,3.13-7.74s8.71.74,11.76,1.67A61,61,0,0,1,121.5,29c1.9.85,8.05,4.71,9.65,7.36A60.47,60.47,0,0,1,135,47a14,14,0,0,0,1,2.19c2.19-.64,4.09-1.19,6-1.76.71-.21,1.39-.47,1.12-1.46s-.61-2.28-.88-3.42-.46-2.06-.65-3.09a27.54,27.54,0,0,1-.8-5.19,15.45,15.45,0,0,1,1-5,89.81,89.81,0,0,1,3.78-8.93c1.94-3.94,10.24-17.73,11.15-19.1s1.57-1.53,2.89-.83a15.52,15.52,0,0,1,1.9,1.19c1.67,1.24,3.34,2.48,5,3.77,1.22,1,2.37,2,3.58,3,2.42,2,5,3.79,7.27,5.88A45.29,45.29,0,0,1,185.13,23,43.21,43.21,0,0,1,188,27.4a13.66,13.66,0,0,1,.94,3.8,19.74,19.74,0,0,1,.34,3.67c-.05,1.72-.33,3.43-.41,5.15a1.11,1.11,0,0,0,.74.84c2.61.24,5.23.42,7.85.57.93,0,1.26-.18.79-1.29a16.07,16.07,0,0,1-1.19-4.56,20.73,20.73,0,0,1,1.76-11.15,45.63,45.63,0,0,1,5.67-8.81c1.48-2.2,9.18-10.1,10.22-11.18a3,3,0,0,1,4.4-.37,73.45,73.45,0,0,1,6.15,5.52,58.24,58.24,0,0,1,4.46,6.08,56,56,0,0,1,3.4,5.52,33.88,33.88,0,0,1,2.16,5.39,30.27,30.27,0,0,1,1.42,6.09c.09,1.24-.1,5.47-.14,7.32s-.91,3.62-1.25,5.46a2,2,0,0,0,.66,1.71c1.5,1,3.13,1.8,4.81,2.74a3.57,3.57,0,0,0,.65-1.06c.24-1.21.29-2.44.57-3.63a11.37,11.37,0,0,1,1.2-3.72,18.2,18.2,0,0,1,3.72-4.24A33.37,33.37,0,0,1,253,33.46c2.82-1.38,5.81-2.4,8.7-3.65,1.65-.72,2.61-.3,3,1.46.32,1.31.78,2.59,1.07,3.91a45.5,45.5,0,0,1,1.34,7.06c.15,2.46-.36,12.54-1.55,14.7A39.09,39.09,0,0,1,263,60.6c1.08,1,2.21,2,3.42,3a1.19,1.19,0,0,0,1-.37c.71-2.74,2.83-4.45,4.95-5.76a61.79,61.79,0,0,1,8.83-4c1.86-.78,2.54-.51,2.94,1.21a57.34,57.34,0,0,1,1.54,8,20.26,20.26,0,0,1-2.28,12.08,1.3,1.3,0,0,0,.6,1.93c.37.23,6.37,3.87,10.93,6.48,4.34,2.07,8.61.81,11.69.51.12,0,8.07-1.3,10.29-2.39.62-.35,7-6.15,21.24-5.41a17.82,17.82,0,0,1,4.14.79c2,.63,4,1.5,6,2.17,2.21.74,4.49,1.27,6.67,2.1a29,29,0,0,1,4.57,2.34c.84.5,4.27,3.39,4.7,4.49.53,1.34.83,3.14,0,4.32-2,2.81-6.47,2-10,2-3.95-.07-7.95-.42-11.79,1-.75.27-24.06,8.83-25.81,9.43-2.29.8-27.65,6.5-28,6.55-1.82.31-3.64.59-5.44,1a26.62,26.62,0,0,0-5,1.31c-3.27,1.43-5.43,4.11-7,7.22a52.89,52.89,0,0,0-2.45,5.81,11.42,11.42,0,0,0-1,4.05,16.2,16.2,0,0,0,1.07,5c1,2.81,2.25,5.54,3.39,8.3s2.3,5.71,3.54,8.52c.8,1.81,1.78,3.53,2.67,5.3a1.83,1.83,0,0,1-1,2.74,14.22,14.22,0,0,1-3.64.56,68.86,68.86,0,0,1-7-.53,12.93,12.93,0,0,1-4.05-1,3.7,3.7,0,0,1-1.72-2.18,16.33,16.33,0,0,1-.52-4.72,8.88,8.88,0,0,0-1.12-4.59c-.68-1.27-1.28-2.59-2-3.86-1.21-2.27-3.76-8.44-4.19-8.8-.06.59-.46,2.15-.53,2.48-.67,2.8-2.22,10.54-2.56,11.52-1,3-.15,5.36,1.91,7.51a8.58,8.58,0,0,1,1.4,1.93c.72,1.38.17,2.26-1.36,2.33a6.94,6.94,0,0,0-1.19.16c-1.42.26-2.83.65-4.27.78a41.33,41.33,0,0,1-4.59,0c-2.47-.05-5.47-2.81-5.59-5.24q-.31-6.3-.48-12.59c-.07-2.88.06-5.76,0-8.64-.09-3.2-.29-6.4-.54-9.59a1.64,1.64,0,0,0-1-1.2,16.32,16.32,0,0,0-3.63,0c-2.37.24-8,.91-8.44,1a70.47,70.47,0,0,1-8,.91c-6.8,0-21.1-.62-21.42-.75-1.69-.66-2.55,1.82-2.6,1.94-1.24,3.14-2.55,6.26-3.72,9.43a47.67,47.67,0,0,0-2.69,8.23,10.94,10.94,0,0,0,2.92,10,28.76,28.76,0,0,1,2.68,3.15c.57.77,1.22,1.65.68,2.69C189.09,163.39,188.49,163.28,187.8,163.39Z"/></g></g></svg>